HIERARCHY
ROOT root
{
	OFFSET 0.000000 0.000000 0.000000
	CHANNELS 6 Xposition Yposition Zposition Zrotation Yrotation Xrotation
	JOINT lhip
	{
		OFFSET 0.058581 -0.082280 -0.017664
		CHANNELS 3 Zrotation Yrotation Xrotation
		JOINT lknee
		{
			OFFSET 0.043451 -0.386469 0.008037
			CHANNELS 3 Zrotation Yrotation Xrotation
			JOINT lankle
			{
				OFFSET -0.014790 -0.426874 -0.037428
				CHANNELS 3 Zrotation Yrotation Xrotation
				JOINT ltoe
				{
					OFFSET 0.041054 -0.060286 0.122042
					CHANNELS 3 Zrotation Yrotation Xrotation
					End Site
					{
						OFFSET 0.000000 0.000000 0.000000
					}
				}
			}
		}
	}
	JOINT rhip
	{
		OFFSET -0.060310 -0.090513 -0.013543
		CHANNELS 3 Zrotation Yrotation Xrotation
		JOINT rknee
		{
			OFFSET -0.043257 -0.383688 -0.004843
			CHANNELS 3 Zrotation Yrotation Xrotation
			JOINT rankle
			{
				OFFSET 0.019056 -0.420046 -0.034562
				CHANNELS 3 Zrotation Yrotation Xrotation
				JOINT rtoe
				{
					OFFSET -0.034840 -0.062106 0.130323
					CHANNELS 3 Zrotation Yrotation Xrotation
					End Site
					{
						OFFSET 0.000000 0.000000 0.000000
					}
				}
			}
		}
	}
	JOINT lowerback
	{
		OFFSET 0.004439 0.124404 -0.038385
		CHANNELS 3 Zrotation Yrotation Xrotation
		JOINT upperback
		{
			OFFSET 0.004488 0.137956 0.026820
			CHANNELS 3 Zrotation Yrotation Xrotation
			JOINT chest
			{
				OFFSET -0.002265 0.056032 0.002855
				CHANNELS 3 Zrotation Yrotation Xrotation
				JOINT lowerneck
				{
					OFFSET -0.013390 0.211636 -0.033468
					CHANNELS 3 Zrotation Yrotation Xrotation
					JOINT upperneck
					{
						OFFSET 0.010113 0.088937 0.050410
						CHANNELS 3 Zrotation Yrotation Xrotation
						End Site
						{
							OFFSET 0.000000 0.000000 0.000000
						}
					}
				}
				JOINT lclavicle
				{
					OFFSET 0.071702 0.114000 -0.018898
					CHANNELS 3 Zrotation Yrotation Xrotation
					JOINT lshoulder
					{
						OFFSET 0.122921 0.045205 -0.019046
						CHANNELS 3 Zrotation Yrotation Xrotation
						JOINT lelbow
						{
							OFFSET 0.255332 -0.015649 -0.022946
							CHANNELS 3 Zrotation Yrotation Xrotation
							JOINT lwrist
							{
								OFFSET 0.265709 0.012698 -0.007375
								CHANNELS 3 Zrotation Yrotation Xrotation
								End Site
								{
									OFFSET 0.000000 0.000000 0.000000
								}
							}
						}
					}
				}
				JOINT rclavicle
				{
					OFFSET -0.082954 0.112472 -0.023707
					CHANNELS 3 Zrotation Yrotation Xrotation
					JOINT rshoulder
					{
						OFFSET -0.113228 0.046853 -0.008472
						CHANNELS 3 Zrotation Yrotation Xrotation
						JOINT relbow
						{
							OFFSET -0.260127 -0.014369 -0.031269
							CHANNELS 3 Zrotation Yrotation Xrotation
							JOINT rwrist
							{
								OFFSET -0.269108 0.006794 -0.006027
								CHANNELS 3 Zrotation Yrotation Xrotation
								End Site
								{
									OFFSET 0.000000 0.000000 0.000000
								}
							}
						}
					}
				}
			}
		}
	}
}
MOTION
Frames: 13
Frame Time: 0.033333
0.440509 0.364026 0.839676 81.448427 -0.663459 165.109305 -0.829288 8.543473 -18.920500 -1.443076 4.542549 2.771700 -5.569816 12.787147 -6.701151 0.000000 -0.000000 0.000000 -15.791519 1.470864 -57.015658 5.351790 9.616574 19.728447 3.543326 -6.969572 -23.268753 0.000000 -0.000000 0.000000 20.653046 -10.384841 30.410522 -8.974241 -0.672795 -29.001729 -3.110226 2.206303 13.670540 -6.297123 5.705277 40.092041 12.059178 8.161839 1.377552 30.600312 -15.055409 -24.596254 31.267408 -49.959197 -33.469348 2.067160 -14.927656 8.462191 -13.325638 -19.355328 -20.033827 -46.861717 8.549168 -27.897564 -36.463183 52.485979 -62.260007 -13.011650 27.348774 -22.645432 1.323644 3.741908 -10.707339 
0.442083 0.364129 0.839529 81.257969 -0.505724 164.996667 -0.624585 8.682556 -19.054269 -1.195216 4.947776 1.852854 -5.535533 13.064848 -6.413389 0.000000 -0.000000 0.000000 -15.903120 1.419420 -56.868184 5.604453 9.596653 19.613743 3.200022 -6.687828 -22.959701 0.000000 -0.000000 0.000000 20.674141 -10.496301 30.755916 -9.238386 -0.887354 -29.701716 -2.807336 2.370962 14.245010 -5.814909 5.991451 39.956916 11.849241 7.880645 1.432544 30.801225 -15.444401 -25.496673 30.416208 -50.062550 -33.502150 2.026582 -14.736144 7.864750 -13.061198 -19.652256 -19.897789 -47.660956 8.928453 -28.815790 -34.263994 52.016997 -61.341173 -12.162622 27.775960 -22.809275 1.580284 3.888913 -9.533915 
0.444432 0.364319 0.839088 81.011311 -0.509403 164.879422 -0.623187 8.674256 -19.116696 -0.909567 5.040377 0.748353 -5.237458 13.210325 -6.115218 0.000000 -0.000000 0.000000 -15.992409 1.272376 -56.653750 5.694285 9.649235 19.638175 3.452753 -6.456527 -22.880226 0.000000 -0.000000 0.000000 20.721125 -10.588417 30.877235 -9.397897 -1.039044 -29.819473 -2.899761 2.407616 14.353928 -5.825213 6.110874 40.015260 11.863561 8.335020 1.402031 30.719995 -15.566698 -25.621153 30.109456 -50.126801 -33.325378 2.389512 -15.060233 6.974215 -11.969110 -20.025297 -21.306041 -47.756413 8.980215 -28.817110 -33.896736 52.003436 -61.091195 -12.133109 28.000047 -22.756182 1.369286 3.889713 -9.743001 
0.448325 0.364705 0.838417 80.716514 -0.668232 164.782195 -0.852189 8.597906 -19.152883 -0.417704 5.127663 -0.944548 -4.449370 13.613270 -5.888111 0.000000 -0.000000 0.000000 -16.159266 0.984436 -56.414605 5.757318 9.612740 19.835102 3.878423 -6.206532 -22.750445 0.000000 -0.000000 0.000000 20.844009 -10.754403 30.856069 -9.618826 -1.255674 -29.933196 -3.090219 2.493832 14.397836 -6.002171 6.122359 40.108825 11.776372 8.834295 1.473166 30.651474 -15.656973 -25.785128 29.524001 -50.266685 -33.128225 2.904421 -15.606250 5.404308 -10.255029 -20.318223 -23.229130 -47.942662 9.008195 -28.801523 -33.430157 52.115443 -60.834160 -12.047103 28.206525 -22.722757 0.729104 3.931191 -9.901678 
0.451066 0.364879 0.838003 80.648066 -0.801386 164.725073 -0.988913 8.637642 -19.210032 -0.055498 5.350763 -1.969988 -3.711099 14.008947 -5.623781 0.000000 -0.000000 0.000000 -16.204176 0.831549 -56.303361 5.788813 9.533840 20.110250 3.971946 -6.136605 -22.597868 0.000000 -0.000000 0.000000 20.957298 -10.874581 30.808858 -9.711458 -1.367384 -29.998858 -3.189196 2.536563 14.395738 -6.104813 6.064506 40.151634 11.705996 9.045966 1.572979 30.603152 -15.751016 -25.834894 29.277029 -50.255637 -33.027111 3.114598 -15.750448 4.908102 -9.262416 -20.372624 -24.111384 -48.023145 9.029025 -28.784712 -33.223362 52.184509 -60.817374 -11.911851 28.231020 -22.909770 0.209915 3.959357 -10.102860 
0.454977 0.365019 0.837594 80.660373 -0.943407 164.692680 -1.147193 8.798387 -19.464272 0.498329 6.130644 -3.162913 -2.221182 14.932588 -5.287238 0.000000 -0.000000 0.000000 -16.164457 0.791036 -56.320137 5.722505 9.430060 20.674981 3.857755 -6.156216 -22.152902 0.000000 -0.000000 0.000000 21.066420 -11.015789 30.660326 -9.749114 -1.444217 -29.971397 -3.260586 2.590313 14.337755 -6.176008 5.972252 40.145493 11.475603 9.178091 1.671148 30.629582 -15.827627 -25.924479 28.802802 -50.142063 -32.910200 3.442381 -16.122478 4.105692 -8.282118 -20.303791 -25.090332 -48.132143 9.026947 -28.788978 -32.946408 52.210207 -60.833140 -11.796976 28.364032 -23.175946 -0.118191 3.902624 -10.285993 
0.459390 0.365210 0.837250 80.830964 -1.147629 164.587903 -1.279017 9.193175 -19.765872 0.972488 7.504578 -4.168663 -0.645084 16.105779 -5.330104 0.000000 -0.000000 0.000000 -16.046069 0.894875 -56.244835 5.554853 9.387302 21.290478 3.720106 -6.287874 -21.706727 0.000000 -0.000000 0.000000 21.216527 -11.166200 30.549901 -9.735515 -1.517331 -29.975083 -3.269932 2.593015 14.337938 -6.121207 5.883026 40.208343 11.175809 9.249203 1.649790 30.655563 -15.947061 -26.105693 28.456569 -50.121772 -33.180716 3.876134 -16.445120 2.695112 -7.660075 -20.111813 -25.773818 -48.253152 8.951819 -28.832431 -32.540833 52.237947 -60.731051 -11.821741 28.609781 -23.205608 -0.146491 3.746069 -10.400510 
0.464540 0.365484 0.836743 81.045373 -1.497397 164.442040 -1.504835 9.568775 -19.845613 1.234837 8.665314 -5.251186 0.359199 16.933415 -5.705066 0.000000 -0.000000 0.000000 -15.957342 0.917960 -56.042032 5.377748 9.353234 21.890927 3.595577 -6.439960 -21.287319 0.000000 -0.000000 0.000000 21.411472 -11.344926 30.419601 -9.708635 -1.654451 -30.049057 -3.306558 2.570140 14.370916 -6.094951 5.737129 40.287628 10.910343 9.360751 1.627873 30.647914 -16.095553 -26.274200 28.496894 -50.200993 -33.719318 4.194168 -16.434064 1.291729 -7.103344 -19.914182 -26.227526 -48.346630 8.873891 -28.844424 -32.297894 52.238305 -60.655862 -11.754483 28.736962 -23.180999 -0.310172 3.639478 -10.376831 
0.470394 0.365946 0.836128 81.233561 -1.912480 164.294437 -1.757563 9.845170 -19.791106 1.249868 9.193048 -5.911546 1.141067 17.329997 -6.245661 0.000000 -0.000000 0.000000 -15.943690 0.809126 -55.749354 5.301416 9.295762 22.392667 3.710108 -6.504034 -20.705065 0.000000 -0.000000 0.000000 21.576882 -11.530931 30.249765 -9.663159 -1.831535 -30.199119 -3.367431 2.561908 14.422791 -6.148062 5.564409 40.413522 10.620103 9.473707 1.600186 30.750981 -16.164898 -26.434316 28.516564 -50.262572 -34.267824 4.423719 -16.381133 0.020106 -6.496646 -19.659163 -26.553010 -48.506747 8.756100 -28.844809 -32.015922 52.241421 -60.579821 -11.625034 28.750542 -23.146285 -0.602893 3.576871 -10.358557 
0.478835 0.366475 0.835107 81.363891 -2.168900 164.260768 -1.925683 10.038068 -19.425926 1.119441 9.213886 -6.097785 1.741069 17.423025 -7.084955 0.000000 -0.000000 0.000000 -15.944714 0.719749 -55.517535 5.277048 9.138073 22.841253 4.043293 -6.405904 -19.659245 0.000000 -0.000000 0.000000 21.674168 -11.581576 29.916439 -9.677546 -1.926110 -30.504066 -3.400431 2.568682 14.529028 -6.282097 5.361260 40.711857 10.239567 9.470621 1.410368 30.948037 -16.151585 -26.656462 28.734688 -50.468908 -35.191768 4.736647 -16.148504 -1.752049 -6.011627 -19.231200 -26.640253 -48.762970 8.576959 -28.824272 -31.655767 52.149720 -60.488851 -11.480728 28.604765 -23.108338 -0.717674 3.505885 -10.504646 
0.486740 0.366847 0.834222 81.492649 -2.153559 164.343341 -1.903644 10.120856 -18.668427 1.156376 9.031595 -6.196754 2.028846 17.504991 -7.766291 0.000000 -0.000000 0.000000 -15.874497 0.730284 -55.240639 5.249149 9.043375 22.755531 4.367630 -6.292668 -18.574461 0.000000 -0.000000 0.000000 21.807074 -11.581587 29.496479 -9.725754 -1.936366 -30.750926 -3.470406 2.587847 14.647289 -6.426813 5.232924 40.983492 9.939714 9.344847 1.103257 31.246525 -16.020498 -26.951916 29.241965 -50.713487 -36.148761 4.863287 -15.404112 -3.121348 -5.700937 -18.896454 -26.510361 -49.135465 8.284290 -28.966361 -31.307490 52.075280 -60.356928 -11.361062 28.117174 -23.424470 -0.858558 3.515765 -11.077031 
0.495833 0.367167 0.833441 81.665129 -2.137679 164.500845 -1.835230 10.264341 -17.404329 1.226687 8.551842 -6.443423 2.223033 17.483665 -8.509474 0.000000 -0.000000 0.000000 -15.685995 0.605357 -54.728142 5.165640 8.907815 22.156860 4.880169 -6.266571 -17.125444 0.000000 -0.000000 0.000000 21.954838 -11.592265 28.929408 -9.772417 -1.947160 -31.060512 -3.550037 2.605377 14.804147 -6.679950 4.910295 41.564075 9.682266 8.988652 0.700696 31.652669 -15.971513 -27.206393 30.289040 -50.810383 -37.555428 4.750524 -14.310062 -4.396940 -5.417582 -18.548308 -26.172721 -49.714643 7.976601 -29.103012 -30.897555 51.743979 -60.269785 -11.137613 27.331649 -23.874448 -0.941946 3.571812 -11.858362 
0.506334 0.367120 0.832997 81.802137 -1.988361 164.661385 -1.646172 10.374737 -15.591367 1.227274 7.687371 -6.478707 2.379278 17.273789 -9.325668 0.000000 -0.000000 0.000000 -15.153455 0.287646 -53.955998 4.987066 8.419881 20.855641 5.749673 -6.417679 -15.101585 0.000000 -0.000000 0.000000 22.031897 -11.538310 28.416988 -9.886543 -1.932663 -31.509556 -3.644159 2.682210 15.135027 -6.981345 4.508443 42.551007 9.562829 8.434014 0.111951 32.337452 -15.775999 -27.595862 31.919251 -50.877459 -39.635621 4.526787 -12.882171 -5.967604 -5.382497 -17.999302 -25.448691 -50.527193 7.530104 -29.237849 -30.224359 51.081792 -60.048843 -10.979563 26.373147 -24.461297 -0.709594 3.517547 -12.996023 
